<svg xmlns="http://www.w3.org/2000/svg" xmlns:xlink="http://www.w3.org/1999/xlink" aria-hidden="true" role="img" class="iconify iconify--logos" width="31.88" height="32" preserveAspectRatio="xMidYMid meet" viewBox="0 0 256 257"><defs><linearGradient id="IconifyId1813088fe1fbc01" x1="-46.062%" x2="65.946%" y1="11.064%" y2="28.718%"><stop offset="0%" stop-color="#41D1FF"></stop><stop offset="100%" stop-color="#BD34FE"></stop></linearGradient><linearGradient id="IconifyId1813088fe1fbc02" x1="41.116%" x2="50%" y1="9.695%" y2="100%"><stop offset="0%" stop-color="#FFEA83"></stop><stop offset="8.333%" stop-color="#FFDD35"></stop><stop offset="100%" stop-color="#FFA800"></stop></linearGradient></defs><path fill="url(#IconifyId1813088fe1fbc01)" d="M255.153 37.938L134.897 252.676c-2.483 4.43-8.863 4.43-11.346 0L3.102 37.938c-2.556-4.56 2.113-9.585 6.759-7.789l112.554 43.556c4.364 1.688 9.171 1.688 13.535 0L248.394 30.149c4.646-1.796 9.315 3.229 6.759 7.789z"></path><path fill="url(#IconifyId1813088fe1fbc02)" d="M185.432 15.035L134.702 125.13a4.539 4.539 0 0 1-8.177 0L75.834 15.035c-2.909-6.32 4.072-12.016 9.471-7.711l39.06 31.134a5.672 5.672 0 0 0 7.14 0l39.06-31.134c5.399-4.305 12.38 1.391 9.467 7.711z"></path></svg>
